<svg width="188" height="43" viewBox="0 0 188 43" fill="none" xmlns="http://www.w3.org/2000/svg">
<path d="M27.8684 20.6977V14.7425C27.8684 8.16452 22.5359 2.83203 15.958 2.83203V2.83203C9.37999 2.83203 4.0475 8.16453 4.0475 14.7425V32.9216" stroke="#2F80ED" stroke-width="5.01493" stroke-linecap="round"/>
<path d="M15.9579 22.2642L15.9579 27.906C15.9579 34.4839 21.2904 39.8164 27.8683 39.8164V39.8164C34.4463 39.8164 39.7788 34.4839 39.7788 27.9059L39.7788 9.72686" stroke="#2F80ED" stroke-width="5.01493" stroke-linecap="round"/>
<path d="M3.42096 21.6367H40.406" stroke="#2F80ED" stroke-width="5.01493"/>
<rect x="3.42061" y="2.83168" width="36.9851" height="36.9851" rx="10.0299" stroke="#2F80ED" stroke-width="5.01493"/>
<path d="M68.4844 29.1602V32.3242H57.7618V29.1602H68.4844ZM58.9776 10.9961V32.3242H54.9493V10.9961H58.9776ZM71.6983 24.5605V24.2529C71.6983 23.0908 71.8643 22.0215 72.1964 21.0449C72.5284 20.0586 73.0118 19.2041 73.6465 18.4814C74.2813 17.7588 75.0577 17.1973 75.9756 16.7969C76.8936 16.3867 77.9385 16.1816 79.1104 16.1816C80.3018 16.1816 81.3565 16.3867 82.2745 16.7969C83.2022 17.1973 83.9835 17.7588 84.6182 18.4814C85.253 19.2041 85.7364 20.0586 86.0684 21.0449C86.4005 22.0215 86.5665 23.0908 86.5665 24.2529V24.5605C86.5665 25.7129 86.4005 26.7822 86.0684 27.7686C85.7364 28.7451 85.253 29.5996 84.6182 30.332C83.9835 31.0547 83.2071 31.6162 82.2891 32.0166C81.3712 32.417 80.3214 32.6172 79.1397 32.6172C77.9678 32.6172 76.918 32.417 75.9903 32.0166C75.0626 31.6162 74.2813 31.0547 73.6465 30.332C73.0118 29.5996 72.5284 28.7451 72.1964 27.7686C71.8643 26.7822 71.6983 25.7129 71.6983 24.5605ZM75.5655 24.2529V24.5605C75.5655 25.2539 75.6339 25.9033 75.7706 26.5088C75.9073 27.1143 76.1172 27.6465 76.4005 28.1055C76.6837 28.5645 77.0499 28.9258 77.4991 29.1895C77.9581 29.4434 78.5049 29.5703 79.1397 29.5703C79.7647 29.5703 80.3018 29.4434 80.751 29.1895C81.2003 28.9258 81.5665 28.5645 81.8497 28.1055C82.1426 27.6465 82.3575 27.1143 82.4942 26.5088C82.6309 25.9033 82.6993 25.2539 82.6993 24.5605V24.2529C82.6993 23.5693 82.6309 22.9297 82.4942 22.334C82.3575 21.7285 82.1426 21.1963 81.8497 20.7373C81.5665 20.2686 81.1954 19.9023 80.7364 19.6387C80.2872 19.3652 79.7452 19.2285 79.1104 19.2285C78.4854 19.2285 77.9483 19.3652 77.4991 19.6387C77.0499 19.9023 76.6837 20.2686 76.4005 20.7373C76.1172 21.1963 75.9073 21.7285 75.7706 22.334C75.6339 22.9297 75.5655 23.5693 75.5655 24.2529ZM100.957 16.4746H104.473V31.8408C104.473 33.2764 104.16 34.4922 103.535 35.4883C102.92 36.4941 102.056 37.2559 100.942 37.7734C99.8292 38.3008 98.5352 38.5645 97.0606 38.5645C96.4258 38.5645 95.7374 38.4766 94.9952 38.3008C94.2628 38.125 93.5547 37.8467 92.8712 37.4658C92.1973 37.0947 91.6358 36.6113 91.1866 36.0156L92.9297 33.7305C93.4571 34.3457 94.0528 34.8096 94.7169 35.1221C95.3809 35.4443 96.0987 35.6055 96.8702 35.6055C97.6514 35.6055 98.3155 35.459 98.8624 35.166C99.419 34.8828 99.8438 34.4629 100.137 33.9062C100.44 33.3594 100.591 32.6855 100.591 31.8848V20.0928L100.957 16.4746ZM90.2491 24.5898V24.2822C90.2491 23.0713 90.3956 21.9727 90.6885 20.9863C90.9815 19.9902 91.4014 19.1357 91.9483 18.4229C92.5049 17.71 93.1739 17.1582 93.9551 16.7676C94.7462 16.377 95.6348 16.1816 96.6212 16.1816C97.6661 16.1816 98.545 16.3721 99.2579 16.7529C99.9805 17.1338 100.576 17.6758 101.045 18.3789C101.523 19.082 101.895 19.917 102.158 20.8838C102.432 21.8408 102.642 22.8955 102.788 24.0479V24.8828C102.651 26.0059 102.432 27.0361 102.129 27.9736C101.836 28.9111 101.445 29.7314 100.957 30.4346C100.469 31.1279 99.8633 31.665 99.1407 32.0459C98.418 32.4268 97.5684 32.6172 96.5919 32.6172C95.6153 32.6172 94.7364 32.417 93.9551 32.0166C93.1739 31.6162 92.5049 31.0547 91.9483 30.332C91.4014 29.6094 90.9815 28.7598 90.6885 27.7832C90.3956 26.8066 90.2491 25.7422 90.2491 24.5898ZM94.1163 24.2822V24.5898C94.1163 25.2734 94.1846 25.9131 94.3214 26.5088C94.4581 27.1045 94.668 27.6318 94.9512 28.0908C95.2344 28.54 95.5909 28.8916 96.0206 29.1455C96.4503 29.3994 96.963 29.5264 97.5587 29.5264C98.3594 29.5264 99.0137 29.3604 99.5215 29.0283C100.039 28.6865 100.43 28.2227 100.693 27.6367C100.967 27.041 101.143 26.3721 101.221 25.6299V23.3301C101.172 22.7441 101.065 22.2021 100.898 21.7041C100.742 21.2061 100.523 20.7764 100.239 20.415C99.9561 20.0537 99.5948 19.7705 99.1553 19.5654C98.7159 19.3604 98.1934 19.2578 97.588 19.2578C97.002 19.2578 96.4893 19.3896 96.0499 19.6533C95.6104 19.9072 95.2491 20.2637 94.9659 20.7227C94.6827 21.1816 94.4678 21.7139 94.3214 22.3193C94.1846 22.9248 94.1163 23.5791 94.1163 24.2822ZM113.561 16.4746V32.3242H109.679V16.4746H113.561ZM109.415 12.3291C109.415 11.7529 109.61 11.2744 110.001 10.8936C110.401 10.5127 110.939 10.3223 111.612 10.3223C112.286 10.3223 112.818 10.5127 113.209 10.8936C113.609 11.2744 113.81 11.7529 113.81 12.3291C113.81 12.8955 113.609 13.3691 113.209 13.75C112.818 14.1309 112.286 14.3213 111.612 14.3213C110.939 14.3213 110.401 14.1309 110.001 13.75C109.61 13.3691 109.415 12.8955 109.415 12.3291ZM127.468 27.9883C127.468 27.6562 127.38 27.3584 127.204 27.0947C127.028 26.8311 126.696 26.5918 126.208 26.377C125.73 26.1523 125.026 25.9424 124.099 25.7471C123.278 25.5713 122.522 25.3516 121.828 25.0879C121.135 24.8242 120.539 24.5068 120.041 24.1357C119.543 23.7549 119.152 23.3105 118.869 22.8027C118.596 22.2852 118.459 21.6895 118.459 21.0156C118.459 20.3613 118.601 19.7461 118.884 19.1699C119.167 18.584 119.577 18.0713 120.114 17.6318C120.651 17.1826 121.306 16.8311 122.077 16.5771C122.849 16.3135 123.718 16.1816 124.685 16.1816C126.032 16.1816 127.19 16.4014 128.156 16.8408C129.133 17.2803 129.88 17.8857 130.398 18.6572C130.915 19.4189 131.174 20.2783 131.174 21.2354H127.307C127.307 20.8154 127.209 20.4346 127.014 20.0928C126.828 19.751 126.54 19.4775 126.149 19.2725C125.759 19.0576 125.266 18.9502 124.67 18.9502C124.133 18.9502 123.679 19.0381 123.308 19.2139C122.946 19.3896 122.673 19.6191 122.487 19.9023C122.302 20.1855 122.209 20.498 122.209 20.8398C122.209 21.0938 122.258 21.3232 122.356 21.5283C122.463 21.7236 122.634 21.9043 122.868 22.0703C123.103 22.2363 123.42 22.3877 123.82 22.5244C124.231 22.6611 124.733 22.793 125.329 22.9199C126.511 23.1543 127.541 23.4668 128.42 23.8574C129.309 24.2383 130.002 24.7461 130.5 25.3809C130.998 26.0156 131.247 26.8262 131.247 27.8125C131.247 28.5156 131.096 29.1602 130.793 29.7461C130.49 30.3223 130.051 30.8252 129.475 31.2549C128.898 31.6846 128.21 32.0215 127.409 32.2656C126.608 32.5 125.705 32.6172 124.699 32.6172C123.244 32.6172 122.014 32.3584 121.008 31.8408C120.002 31.3135 119.24 30.6494 118.723 29.8486C118.205 29.0381 117.946 28.1982 117.946 27.3291H121.652C121.682 27.9443 121.848 28.4375 122.15 28.8086C122.453 29.1797 122.834 29.4482 123.293 29.6143C123.762 29.7705 124.255 29.8486 124.773 29.8486C125.358 29.8486 125.852 29.7705 126.252 29.6143C126.652 29.4482 126.955 29.2285 127.16 28.9551C127.365 28.6719 127.468 28.3496 127.468 27.9883ZM143.191 16.4746V19.2578H134.109V16.4746H143.191ZM136.541 12.5781H140.423V27.7539C140.423 28.2227 140.486 28.584 140.613 28.8379C140.74 29.0918 140.931 29.2627 141.185 29.3506C141.439 29.4385 141.741 29.4824 142.093 29.4824C142.347 29.4824 142.581 29.4678 142.796 29.4385C143.011 29.4092 143.191 29.3799 143.338 29.3506L143.353 32.251C143.03 32.3584 142.664 32.4463 142.254 32.5146C141.854 32.583 141.399 32.6172 140.892 32.6172C140.023 32.6172 139.261 32.4707 138.607 32.1777C137.952 31.875 137.444 31.3916 137.083 30.7275C136.722 30.0537 136.541 29.165 136.541 28.0615V12.5781ZM151.371 16.4746V32.3242H147.489V16.4746H151.371ZM147.226 12.3291C147.226 11.7529 147.421 11.2744 147.812 10.8936C148.212 10.5127 148.749 10.3223 149.423 10.3223C150.097 10.3223 150.629 10.5127 151.02 10.8936C151.42 11.2744 151.62 11.7529 151.62 12.3291C151.62 12.8955 151.42 13.3691 151.02 13.75C150.629 14.1309 150.097 14.3213 149.423 14.3213C148.749 14.3213 148.212 14.1309 147.812 13.75C147.421 13.3691 147.226 12.8955 147.226 12.3291ZM163.066 29.5703C163.613 29.5703 164.102 29.4629 164.531 29.248C164.961 29.0332 165.303 28.7305 165.557 28.3398C165.82 27.9492 165.962 27.4951 165.982 26.9775H169.629C169.609 28.0518 169.307 29.0137 168.721 29.8633C168.135 30.7129 167.354 31.3867 166.377 31.8848C165.41 32.373 164.326 32.6172 163.125 32.6172C161.904 32.6172 160.84 32.4121 159.932 32.002C159.023 31.5918 158.267 31.0205 157.661 30.2881C157.065 29.5557 156.616 28.7061 156.314 27.7393C156.021 26.7725 155.874 25.7373 155.874 24.6338V24.165C155.874 23.0615 156.021 22.0264 156.314 21.0596C156.616 20.0928 157.065 19.2432 157.661 18.5107C158.267 17.7783 159.023 17.207 159.932 16.7969C160.84 16.3867 161.899 16.1816 163.11 16.1816C164.39 16.1816 165.513 16.4307 166.48 16.9287C167.456 17.4268 168.218 18.1299 168.765 19.0381C169.321 19.9463 169.609 21.0156 169.629 22.2461H165.982C165.962 21.6797 165.835 21.1719 165.601 20.7227C165.366 20.2734 165.034 19.9121 164.605 19.6387C164.175 19.3652 163.652 19.2285 163.037 19.2285C162.383 19.2285 161.836 19.3652 161.397 19.6387C160.967 19.9121 160.63 20.2881 160.386 20.7666C160.151 21.2354 159.985 21.7627 159.888 22.3486C159.8 22.9248 159.756 23.5303 159.756 24.165V24.6338C159.756 25.2783 159.8 25.8936 159.888 26.4795C159.985 27.0654 160.151 27.5928 160.386 28.0615C160.63 28.5205 160.967 28.8867 161.397 29.1602C161.836 29.4336 162.393 29.5703 163.066 29.5703ZM182.423 27.9883C182.423 27.6562 182.335 27.3584 182.159 27.0947C181.983 26.8311 181.651 26.5918 181.163 26.377C180.685 26.1523 179.982 25.9424 179.054 25.7471C178.233 25.5713 177.477 25.3516 176.783 25.0879C176.09 24.8242 175.494 24.5068 174.996 24.1357C174.498 23.7549 174.107 23.3105 173.824 22.8027C173.551 22.2852 173.414 21.6895 173.414 21.0156C173.414 20.3613 173.556 19.7461 173.839 19.1699C174.122 18.584 174.532 18.0713 175.069 17.6318C175.607 17.1826 176.261 16.8311 177.032 16.5771C177.804 16.3135 178.673 16.1816 179.64 16.1816C180.987 16.1816 182.145 16.4014 183.111 16.8408C184.088 17.2803 184.835 17.8857 185.353 18.6572C185.87 19.4189 186.129 20.2783 186.129 21.2354H182.262C182.262 20.8154 182.164 20.4346 181.969 20.0928C181.783 19.751 181.495 19.4775 181.105 19.2725C180.714 19.0576 180.221 18.9502 179.625 18.9502C179.088 18.9502 178.634 19.0381 178.263 19.2139C177.901 19.3896 177.628 19.6191 177.442 19.9023C177.257 20.1855 177.164 20.498 177.164 20.8398C177.164 21.0938 177.213 21.3232 177.311 21.5283C177.418 21.7236 177.589 21.9043 177.823 22.0703C178.058 22.2363 178.375 22.3877 178.775 22.5244C179.186 22.6611 179.689 22.793 180.284 22.9199C181.466 23.1543 182.496 23.4668 183.375 23.8574C184.264 24.2383 184.957 24.7461 185.455 25.3809C185.953 26.0156 186.202 26.8262 186.202 27.8125C186.202 28.5156 186.051 29.1602 185.748 29.7461C185.445 30.3223 185.006 30.8252 184.43 31.2549C183.854 31.6846 183.165 32.0215 182.364 32.2656C181.564 32.5 180.66 32.6172 179.654 32.6172C178.199 32.6172 176.969 32.3584 175.963 31.8408C174.957 31.3135 174.195 30.6494 173.678 29.8486C173.16 29.0381 172.901 28.1982 172.901 27.3291H176.607C176.637 27.9443 176.803 28.4375 177.106 28.8086C177.408 29.1797 177.789 29.4482 178.248 29.6143C178.717 29.7705 179.21 29.8486 179.728 29.8486C180.314 29.8486 180.807 29.7705 181.207 29.6143C181.607 29.4482 181.91 29.2285 182.115 28.9551C182.32 28.6719 182.423 28.3496 182.423 27.9883Z" fill="black"/>
</svg>
